<svg version="1.1" id="Layer_1" xmlns="http://www.w3.org/2000/svg" xmlns:xlink="http://www.w3.org/1999/xlink" x="0px" y="0px"
	 width="512px" height="512px" viewBox="0 0 512 512" enable-background="new 0 0 512 512" xml:space="preserve">
<path d="M41,360c-19,0-36,16-36,35s17,36,36,36s35-17,35-36S60,360,41,360z"/>
<path d="M41,188c-19,0-36,16-36,35s17,35,36,35s35-16,35-35S60,188,41,188z"/>
<path d="M169,83h303c18,0,33-14,33-32s-15-33-33-33H169c-18,0-33,15-33,33S151,83,169,83z"/>
<path d="M41,15C22,15,5,32,5,51s17,35,36,35s35-16,35-35S60,15,41,15z"/>
<path d="M472,190H169c-18,0-33,15-33,33s15,33,33,33h303c18,0,33-15,33-33S490,190,472,190z"/>
<path d="M472,362H169c-18,0-33,15-33,33s15,33,33,33h303c18,0,33-15,33-33S490,362,472,362z"/>
</svg>
