<?xml version="1.0" encoding="UTF-8"?>
<!DOCTYPE svg PUBLIC "-//W3C//DTD SVG 1.1//EN" "http://www.w3.org/Graphics/SVG/1.1/DTD/svg11.dtd">
<svg version="1.1" xmlns="http://www.w3.org/2000/svg" xmlns:xlink="http://www.w3.org/1999/xlink" x="0" y="0" width="250" height="250" viewBox="0, 0, 250, 250">
  <g id="Layer_1">
    <path d="M125,250 C55.964,250 0,194.036 -0,125 C-0,55.964 55.964,0 125,-0 C194.036,-0 250,55.964 250,125 C250,194.036 194.036,250 125,250 z" fill="#000100" fill-opacity="0.254"/>
    <g>
      <path d="M158.773,136.956 C152.17,136.956 146.817,131.603 146.817,125 C146.817,118.397 152.17,113.044 158.773,113.044 C165.376,113.044 170.729,118.397 170.729,125 C170.729,131.603 165.376,136.956 158.773,136.956 z" fill="#110000"/>
      <path d="M122.056,173.355 C113.04,167.281 39.169,125.144 39.169,125.144 C39.169,125.144 110.892,83.509 122.673,76.934 C134.453,70.359 160.941,81.263 160.078,124.378 C159.216,167.492 131.072,179.429 122.056,173.355 z" fill="#E9EDEE"/>
      <path d="M48.361,120.396 L48.361,120.396 C53.62,120.202 58.033,124.106 58.218,129.116 L59.559,165.403 C59.744,170.413 55.631,174.632 50.373,174.826 L50.373,174.826 C45.114,175.021 40.701,171.117 40.516,166.107 L39.175,129.82 C38.99,124.81 43.103,120.591 48.361,120.396 z" fill="#E9EDEE"/>
      <path d="M36.139,103.379 L69.613,103.379 C78.417,103.379 85.553,109.832 85.553,117.793 L85.553,132.207 C85.553,140.168 78.417,146.621 69.613,146.621 L36.139,146.621 C27.336,146.621 20.199,140.168 20.199,132.207 L20.199,117.793 C20.199,109.832 27.336,103.379 36.139,103.379 z" fill="#FF7674"/>
    </g>
    <path d="M173.584,97.985 C183.179,103.628 189.012,113.982 188.867,125.112 C188.721,136.242 182.62,146.44 172.881,151.83" fill-opacity="0" stroke="#000000" stroke-width="2"/>
    <path d="M189.821,89.063 C202.807,96.7 210.702,110.713 210.505,125.776 C210.309,140.84 202.051,154.642 188.869,161.937" fill-opacity="0" stroke="#000000" stroke-width="2"/>
    <path d="M204.845,79.83 C220.911,89.277 230.678,106.613 230.435,125.25 C230.191,143.886 219.975,160.961 203.668,169.986" fill-opacity="0" stroke="#000000" stroke-width="2"/>
  </g>
</svg>
