<?xml version="1.0" encoding="UTF-8" standalone="no"?>
<!-- Created with Inkscape (http://www.inkscape.org/) -->

<svg
        xmlns:dc="http://purl.org/dc/elements/1.1/"
        xmlns:cc="http://creativecommons.org/ns#"
        xmlns:rdf="http://www.w3.org/1999/02/22-rdf-syntax-ns#"
        xmlns:svg="http://www.w3.org/2000/svg"
        xmlns="http://www.w3.org/2000/svg"
        xmlns:sodipodi="http://sodipodi.sourceforge.net/DTD/sodipodi-0.dtd"
        xmlns:inkscape="http://www.inkscape.org/namespaces/inkscape"
        width="153.41275"
        height="153.48573"
        viewBox="0 0 40.590459 40.609768"
        version="1.1"
        id="svg8"
        inkscape:version="0.92.2 (5c3e80d, 2017-08-06)"
        sodipodi:docname="icon_color.svg"
        inkscape:export-filename="/home/anxhelo/Desktop/Design/openCFP/vertical_white.png"
        inkscape:export-xdpi="96"
        inkscape:export-ydpi="96">
  <defs
          id="defs2" />
  <sodipodi:namedview
          id="base"
          pagecolor="#ffffff"
          bordercolor="#666666"
          borderopacity="1.0"
          inkscape:pageopacity="0.0"
          inkscape:pageshadow="2"
          inkscape:zoom="0.71506173"
          inkscape:cx="1.9811886"
          inkscape:cy="74.306974"
          inkscape:document-units="mm"
          inkscape:current-layer="layer1"
          inkscape:document-rotation="0"
          showgrid="false"
          borderlayer="true"
          inkscape:showpageshadow="false"
          units="px"
          inkscape:pagecheckerboard="false"
          showguides="true"
          inkscape:window-width="1366"
          inkscape:window-height="710"
          inkscape:window-x="0"
          inkscape:window-y="0"
          inkscape:window-maximized="1"
          fit-margin-top="0"
          fit-margin-left="0"
          fit-margin-right="0"
          fit-margin-bottom="0">
    <inkscape:grid
            type="xygrid"
            id="grid10"
            originx="-204.57859"
            originy="-111.74362" />
  </sodipodi:namedview>
  <metadata
          id="metadata5">
    <rdf:RDF>
      <cc:Work
              rdf:about="">
        <dc:format>image/svg+xml</dc:format>
        <dc:type
                rdf:resource="http://purl.org/dc/dcmitype/StillImage" />
        <dc:title></dc:title>
      </cc:Work>
    </rdf:RDF>
  </metadata>
  <g
          inkscape:label="Layer 1"
          inkscape:groupmode="layer"
          id="layer1"
          transform="translate(-204.57856,-144.64662)">
    <g
            id="g1211"
            transform="matrix(1.8680589,0,0,1.8680589,-201.77857,-171.87281)">
      <g
              transform="matrix(0.35277777,0,0,-0.35277777,227.25675,172.59003)"
              id="g112">
        <path
                inkscape:connector-curvature="0"
                id="path114"
                style="fill:#e04c3d;fill-opacity:1;fill-rule:nonzero;stroke:none"
                d="M 0,0 11.033,7.93 C 8.534,8.584 5.912,8.936 3.208,8.936 -5.647,8.936 -13.624,5.195 -19.244,-0.786 -18.332,-0.29 -17.297,0 -16.196,0 Z" />
      </g>
      <g
              transform="matrix(0.35277777,0,0,-0.35277777,219.52051,181.78473)"
              id="g116">
        <path
                inkscape:connector-curvature="0"
                id="path118"
                style="fill:#e04c3d;fill-opacity:1;fill-rule:nonzero;stroke:none"
                d="m 0,0 c -2.192,0.471 -4.127,1.56 -5.645,3.061 0.299,-8.314 3.891,-15.785 9.514,-21.154 -2.071,5.221 -2.368,10.739 -2.351,16.1 C 0.887,-1.435 0.369,-0.755 0,0" />
      </g>
      <g
              transform="matrix(0.35277777,0,0,-0.35277777,218.37836,176.06465)"
              id="g120">
        <path
                inkscape:connector-curvature="0"
                id="path122"
                style="fill:#e04c3d;fill-opacity:1;fill-rule:nonzero;stroke:none"
                d="m 0,0 c -0.788,-1.857 -1.399,-3.806 -1.812,-5.828 0.292,-2.607 1.891,-4.827 4.175,-5.938 V 1.814 C 1.453,1.371 0.656,0.748 0,0" />
      </g>
      <g
              transform="matrix(0.35277777,0,0,-0.35277777,235.22022,179.40164)"
              id="g124">
        <path
                inkscape:connector-curvature="0"
                id="path126"
                style="fill:#e04c3d;fill-opacity:1;fill-rule:nonzero;stroke:none"
                d="M 0,0 C 1.471,0.962 2.43,2.627 2.43,4.483 2.43,6.34 1.471,8.004 0,8.966 Z" />
      </g>
      <g
              transform="matrix(0.35277777,0,0,-0.35277777,235.22022,171.85534)"
              id="g128">
        <path
                inkscape:connector-curvature="0"
                id="path130"
                style="fill:#e04c3d;fill-opacity:1;fill-rule:nonzero;stroke:none"
                d="m 0,0 v -8.082 c 3.733,-1.236 6.376,-4.766 6.376,-8.826 0,-4.06 -2.643,-7.59 -6.376,-8.826 v -8.742 c 0,-2.606 -1.44,-4.963 -3.759,-6.152 -2.318,-1.188 -5.073,-0.982 -7.188,0.538 l -11.627,8.357 h -1.231 v -1.712 c 0,-2.606 -1.686,-4.826 -4.025,-5.624 0.47,-1.895 1.201,-3.411 2.28,-4.765 1.851,-2.322 1.833,-5.686 -0.044,-8 l -1.047,-1.291 c -0.182,-0.226 -0.382,-0.431 -0.59,-0.627 2.511,-0.661 5.146,-1.017 7.865,-1.017 17.016,0 30.811,13.795 30.811,30.811 C 11.445,-14.28 6.979,-5.649 0,0" />
      </g>
      <g
              transform="matrix(0.35277777,0,0,-0.35277777,223.4029,189.72664)"
              id="g132">
        <path
                inkscape:connector-curvature="0"
                id="path134"
                style="fill:#e04c3d;fill-opacity:1;fill-rule:nonzero;stroke:none"
                d="m 0,0 c 0.466,-0.565 1.153,-0.889 1.886,-0.889 h 0.01 c 0.739,0.003 1.431,0.334 1.896,0.908 L 4.839,1.31 C 5.558,2.196 5.568,3.481 4.863,4.366 3.003,6.699 1.9,9.431 1.39,12.964 l -0.324,2.254 h 2.687 c 1.1,0 1.994,0.895 1.994,1.996 v 1.804 H -5.537 C -5.472,12.209 -4.676,5.678 0,0" />
      </g>
      <g
              transform="matrix(0.35277777,0,0,-0.35277777,221.7483,181.65818)"
              id="g136">
        <path
                inkscape:connector-curvature="0"
                id="path138"
                style="fill:#e04c3d;fill-opacity:1;fill-rule:nonzero;stroke:none"
                d="m 0,0 h 10.438 0.97 1.58 V 21.759 H 0 c -1.792,0 -3.244,-1.452 -3.244,-3.244 V 3.244 C -3.244,1.452 -1.791,0 0,0" />
      </g>
      <g
              transform="matrix(0.35277777,0,0,-0.35277777,233.25902,184.94921)"
              id="g140">
        <path
                inkscape:connector-curvature="0"
                id="path142"
                style="fill:#e04c3d;fill-opacity:1;fill-rule:nonzero;stroke:none"
                d="m 0,0 c 1.01,0.518 1.613,1.505 1.613,2.64 v 35.137 c 0,1.135 -0.603,2.122 -1.613,2.64 -1.01,0.518 -2.164,0.432 -3.085,-0.231 v 0 L -15.696,31.122 V 9.294 L -3.085,0.231 C -2.164,-0.432 -1.01,-0.518 0,0" />
      </g>
    </g>
  </g>
</svg>